<svg width="1000" height="181" viewBox="0 0 1000 181" fill="none" xmlns="http://www.w3.org/2000/svg">
<path d="M992.212 133.527C981.662 133.527 975.257 129.508 975.257 114.688V78.8931H965.963V68.7198H975.257V48.1221H987.565V68.7198H999.874V78.8931H987.565V115.065C987.565 121.847 989.449 123.354 994.724 123.354C996.86 123.354 997.864 123.229 999.999 122.852V132.774C996.86 133.402 994.85 133.527 992.212 133.527Z" fill="white"/>
<path d="M946.11 91.704C946.11 83.1634 942.342 77.386 933.048 77.386C922.498 77.386 915.716 83.7914 915.716 93.4623V132.774H903.407V68.7199H915.716V76.758H915.967C919.358 71.8598 926.015 66.8359 937.067 66.8359C948.873 66.8359 958.418 73.6181 958.418 88.3129V132.774H946.11V91.704Z" fill="white"/>
<path d="M862.618 134.657C842.271 134.657 830.968 120.214 830.968 100.621C830.968 80.5255 843.025 66.71 862.618 66.71C882.085 66.71 893.012 79.5208 893.012 99.3649C893.012 101.123 893.012 103.007 892.887 104.012H843.653C843.904 114.688 850.184 124.61 862.869 124.61C874.173 124.61 878.569 117.325 879.699 113.055H892.259C888.868 125.363 879.448 134.657 862.618 134.657ZM843.653 94.3411H880.201C880.201 84.2934 873.168 76.7576 862.241 76.7576C851.942 76.7576 844.407 83.791 843.653 94.3411Z" fill="white"/>
<path d="M761.975 134.53C745.648 134.53 733.214 121.845 733.214 100.745C733.214 79.6448 745.648 66.834 761.975 66.834C772.023 66.834 778.177 71.481 781.694 76.5049H781.945V42.9707H794.254V132.772H781.945V125.236H781.694C778.177 129.758 772.023 134.53 761.975 134.53ZM746.025 100.745C746.025 113.305 751.928 124.357 763.985 124.357C775.037 124.357 781.82 115.188 781.82 100.745C781.82 86.1758 775.037 77.1328 763.985 77.1328C751.928 77.1328 746.025 88.1853 746.025 100.745Z" fill="white"/>
<path d="M690.346 134.532C674.018 134.532 661.584 121.847 661.584 100.747C661.584 79.6467 674.018 66.8359 690.346 66.8359C700.393 66.8359 706.547 71.483 710.064 76.5068H710.315V68.7199H722.624V132.774H710.315V125.238H710.064C706.547 129.76 700.393 134.532 690.346 134.532ZM674.395 100.747C674.395 113.306 680.298 124.359 692.355 124.359C703.407 124.359 710.19 115.19 710.19 100.747C710.19 86.1777 703.407 77.1348 692.355 77.1348C680.298 77.1348 674.395 88.1873 674.395 100.747Z" fill="white"/>
<path d="M635.946 99.6157V132.773H623.638V68.7191H635.946V80.9019H636.197C639.588 72.8637 644.738 67.2119 653.404 67.2119C655.665 67.2119 657.423 67.3375 659.307 67.5887V79.3947C657.8 79.1435 656.669 79.0179 655.162 79.0179C643.984 79.0179 635.946 87.4329 635.946 99.6157Z" fill="white"/>
<path d="M569.462 134.532C543.59 134.532 529.021 114.939 529.021 87.81C529.021 60.8069 545.474 41.2139 571.095 41.2139C594.33 41.2139 606.639 53.6479 609.528 70.7289H595.084C592.698 59.4253 584.283 53.1455 570.97 53.1455C551.125 53.1455 543.464 70.9801 543.464 87.81C543.464 104.765 549.241 122.6 570.216 122.6C585.036 122.6 596.842 112.301 596.968 97.3553H570.467V85.8005H611.035V132.773H598.098V120.339H597.847C591.567 129.508 583.152 134.532 569.462 134.532Z" fill="white"/>
<path d="M506.647 91.704C506.647 83.1634 502.879 77.386 493.585 77.386C483.035 77.386 476.253 83.7914 476.253 93.4623V132.774H463.944V68.7199H476.253V76.758H476.504C479.895 71.8598 486.552 66.8359 497.604 66.8359C509.41 66.8359 518.955 73.6181 518.955 88.3129V132.774H506.647V91.704Z" fill="white"/>
<path d="M423.154 134.657C402.808 134.657 391.504 120.214 391.504 100.621C391.504 80.5255 403.561 66.71 423.154 66.71C442.622 66.71 453.548 79.5208 453.548 99.3649C453.548 101.123 453.548 103.007 453.423 104.012H404.189C404.44 114.688 410.72 124.61 423.405 124.61C434.709 124.61 439.105 117.325 440.235 113.055H452.795C449.404 125.363 439.984 134.657 423.154 134.657ZM404.189 94.3411H440.738C440.738 84.2934 433.704 76.7576 422.777 76.7576C412.478 76.7576 404.943 83.791 404.189 94.3411Z" fill="white"/>
<path d="M355.417 134.532C345.369 134.532 339.215 130.011 335.698 124.861H335.447V155.004H323.139V68.7199H335.447V76.2556H335.698C339.215 71.7342 345.369 66.8359 355.417 66.8359C371.744 66.8359 384.178 79.6467 384.178 100.747C384.178 121.847 371.744 134.532 355.417 134.532ZM335.573 100.747C335.573 115.19 342.355 124.359 353.407 124.359C365.465 124.359 371.242 113.306 371.242 100.747C371.242 88.1873 365.465 77.1348 353.407 77.1348C342.355 77.1348 335.573 86.1777 335.573 100.747Z" fill="white"/>
<path d="M268.433 134.532C241.555 134.532 224.349 114.813 224.349 87.81C224.349 60.8069 241.555 41.2139 268.433 41.2139C295.31 41.2139 312.517 60.8069 312.517 87.81C312.517 114.813 295.31 134.532 268.433 134.532ZM238.792 87.81C238.792 106.273 247.207 122.6 268.433 122.6C289.659 122.6 298.074 106.273 298.074 87.81C298.074 69.3474 289.659 53.1455 268.433 53.1455C247.207 53.1455 238.792 69.3474 238.792 87.81Z" fill="white"/>
<path d="M808.104 132.774V68.7197H820.413V132.774H808.104Z" fill="white"/>
<path d="M814.325 58.7557C818.684 58.7557 822.218 55.2221 822.218 50.8632C822.218 46.5043 818.684 42.9707 814.325 42.9707C809.966 42.9707 806.433 46.5043 806.433 50.8632C806.433 55.2221 809.966 58.7557 814.325 58.7557Z" fill="white"/>
<path fill-rule="evenodd" clip-rule="evenodd" d="M75.4551 6.88065C83.4987 -1.35734 96.7475 -1.35736 104.791 6.88064L125.11 27.6901C128.849 31.5196 130.942 36.6597 130.942 42.0121V50.0062H138.935C144.288 50.0062 149.428 52.0995 153.257 55.8387L174.067 76.1572C182.305 84.2009 182.305 97.4496 174.067 105.493L153.257 125.812C149.428 129.551 144.288 131.644 138.935 131.644H130.942V139.637C130.942 144.99 128.849 150.13 125.11 153.959L104.791 174.769C96.7475 183.007 83.4988 183.007 75.4551 174.769L55.1365 153.959C51.3973 150.13 49.3041 144.99 49.3041 139.637V131.644H41.3099C35.9576 131.644 30.8175 129.551 26.9879 125.812L6.1785 105.493C-2.05949 97.4496 -2.05951 84.2009 6.17849 76.1572L26.9879 55.8387C30.8175 52.0995 35.9576 50.0062 41.3099 50.0062H49.3041V42.0121C49.3041 36.6597 51.3973 31.5196 55.1365 27.6901L75.4551 6.88065ZM60.3043 139.637V131.644H69.8752C75.2275 131.644 80.3676 129.551 84.1972 125.812L90.1226 120.026L96.048 125.812C99.8776 129.551 105.018 131.644 110.37 131.644H119.942V139.637C119.942 142.118 118.972 144.5 117.239 146.274L96.9205 167.084C93.1929 170.902 87.0533 170.902 83.3257 167.084L63.0072 146.274C61.2744 144.5 60.3043 142.118 60.3043 139.637ZM76.5122 117.941L82.2498 112.339L76.251 106.482C75.9805 106.233 75.7151 105.975 75.4551 105.709L75.368 105.62L75.2386 105.493C74.9617 105.223 74.6941 104.947 74.4359 104.665L68.6093 98.6977L63.0072 104.435C61.2744 106.21 60.3043 108.592 60.3043 111.072V120.644H69.8752C72.3556 120.644 74.7376 119.674 76.5122 117.941ZM97.9955 69.3115L103.963 75.1378C104.244 75.3961 104.521 75.6638 104.791 75.9407L104.918 76.0704L105.007 76.1572C105.273 76.4171 105.53 76.6824 105.779 76.9528L111.637 82.9519L117.239 77.2144C118.972 75.4397 119.942 73.0577 119.942 70.5774V61.0065H110.37C107.89 61.0065 105.508 61.9765 103.733 63.7093L97.9955 69.3115ZM105.007 105.493L104.898 105.6L104.791 105.709C104.526 105.98 104.255 106.243 103.979 106.497L97.9955 112.339L103.733 117.941C105.508 119.674 107.89 120.644 110.37 120.644H119.942V111.072C119.942 108.592 118.972 106.21 117.239 104.435L111.637 98.6977L105.794 104.681C105.541 104.957 105.278 105.228 105.007 105.493ZM84.1972 55.8387L90.1226 61.6243L96.048 55.8387C99.8776 52.0995 105.018 50.0062 110.37 50.0062H119.942V42.0121C119.942 39.5317 118.972 37.1497 117.239 35.375L96.9205 14.5656C93.1929 10.748 87.0533 10.748 83.3257 14.5656L63.0072 35.375C61.2744 37.1497 60.3043 39.5317 60.3043 42.0121V50.0062H69.8752C75.2275 50.0062 80.3676 52.0995 84.1972 55.8387ZM69.8752 61.0065H60.3043V70.5774C60.3043 73.0577 61.2744 75.4397 63.0072 77.2144L68.6093 82.9519L74.4502 76.9699C74.704 76.6936 74.9668 76.4226 75.2386 76.1572L75.3483 76.0501L75.4551 75.9408C75.7204 75.6691 75.9913 75.4063 76.2676 75.1526L82.2497 69.3115L76.5122 63.7093C74.7376 61.9765 72.3556 61.0065 69.8752 61.0065ZM49.3041 70.5774V61.0065H41.3099C38.8296 61.0065 36.4476 61.9765 34.6729 63.7093L13.8635 84.0279C10.0459 87.7554 10.0459 93.8951 13.8635 97.6226L34.6729 117.941C36.4476 119.674 38.8296 120.644 41.3099 120.644H49.3041V111.072C49.3041 105.72 51.3973 100.58 55.1365 96.7502L60.9222 90.8248L55.1365 84.8994C51.3973 81.0698 49.3041 75.9297 49.3041 70.5774ZM130.942 120.644H138.935C141.416 120.644 143.798 119.674 145.572 117.941L166.382 97.6226C170.199 93.8951 170.199 87.7554 166.382 84.0279L145.572 63.7093C143.798 61.9765 141.416 61.0065 138.935 61.0065H130.942V70.5774C130.942 75.9297 128.849 81.0698 125.11 84.8994L119.324 90.8248L125.11 96.7502C128.849 100.58 130.942 105.72 130.942 111.072V120.644ZM79.5515 90.8249C79.5515 96.6635 84.2846 101.397 90.1232 101.397C95.9618 101.397 100.695 96.6635 100.695 90.8249C100.695 84.9863 95.9618 80.2532 90.1232 80.2532C84.2846 80.2532 79.5515 84.9863 79.5515 90.8249Z" fill="white"/>
</svg>