<svg width="342" height="342" viewBox="0 0 342 342" fill="none" xmlns="http://www.w3.org/2000/svg">
<path fill-rule="evenodd" clip-rule="evenodd" d="M170.993 342C160.087 342 149.881 337.704 142.266 329.896L104.078 290.785C96.714 283.242 92.6599 273.278 92.6599 262.735V249.33H79.2557C68.7121 249.33 58.7484 245.276 51.2104 237.912L12.0995 199.724C4.29572 192.104 0 181.904 0 170.998C0 160.092 4.29572 149.886 12.0995 142.271L51.2104 104.083C58.7532 96.7189 68.7121 92.6599 79.2557 92.6599H92.6599V79.2557C92.6599 68.717 96.714 58.7532 104.078 51.2104L142.266 12.0995C149.886 4.29572 160.087 0 170.993 0C181.899 0 192.099 4.29572 199.719 12.0995L237.907 51.2104C245.271 58.7532 249.33 68.7122 249.33 79.2557V92.6599H262.73C273.273 92.6599 283.232 96.7189 290.78 104.083L329.891 142.271C337.695 149.891 341.995 160.092 341.995 170.998C341.995 181.904 337.695 192.109 329.891 199.724L290.78 237.912C283.237 245.276 273.273 249.33 262.73 249.33H249.33V262.735C249.33 273.278 245.271 283.242 237.907 290.785L199.719 329.896C192.099 337.699 181.899 342 170.993 342ZM116.564 262.739C116.564 267.006 118.207 271.031 121.184 274.08L159.372 313.191C162.454 316.346 166.576 318.086 170.988 318.086C175.4 318.086 179.526 316.346 182.604 313.191L220.792 274.08C223.769 271.031 225.412 267.001 225.412 262.735V249.33H209.041C198.497 249.33 188.533 245.276 180.995 237.912L170.988 228.142L160.981 237.912C153.438 245.276 143.479 249.33 132.935 249.33H116.564V262.739ZM79.2461 116.569C74.9842 116.569 70.9542 118.212 67.9052 121.189L28.7944 159.376C25.639 162.454 23.8995 166.581 23.8995 170.993C23.8995 175.404 25.639 179.531 28.7944 182.609L67.9052 220.797C70.9542 223.778 74.9842 225.416 79.2509 225.416H92.6551V209.045C92.6551 198.502 96.7092 188.538 104.073 180.995L113.844 170.988L104.073 160.981C96.7092 153.438 92.6551 143.479 92.6551 132.935V116.564H79.2509L79.2461 116.569ZM262.73 225.416C266.997 225.416 271.026 223.778 274.071 220.797L313.182 182.609C316.337 179.526 318.076 175.4 318.072 170.993C318.072 166.581 316.332 162.454 313.182 159.376L274.071 121.189C271.022 118.207 266.992 116.569 262.725 116.569H249.326V132.94C249.326 143.484 245.267 153.447 237.903 160.986L228.137 170.993L237.903 181C245.267 188.543 249.326 198.507 249.326 209.05V225.416H262.73ZM197.695 220.797C200.744 223.778 204.774 225.416 209.036 225.416H225.407V209.05C225.407 204.783 223.769 200.754 220.792 197.709L211.423 188.113L201.599 198.173C201.14 198.676 200.628 199.207 200.092 199.729L200.048 199.686L200.082 199.739L199.874 199.937C199.198 200.633 198.661 201.15 198.12 201.643L188.098 211.428L197.695 220.797ZM132.94 225.416C137.207 225.416 141.232 223.774 144.281 220.797L153.873 211.428L143.788 201.58C143.29 201.126 142.769 200.618 142.256 200.087L141.894 199.729C141.348 199.198 140.821 198.656 140.314 198.101L130.558 188.103L121.189 197.7C118.212 200.749 116.569 204.779 116.569 209.045V225.412L132.94 225.416ZM170.993 152.742C160.928 152.742 152.742 160.932 152.742 170.993C152.742 181.053 160.932 189.244 170.993 189.244C181.053 189.244 189.244 181.053 189.244 170.993C189.244 160.932 181.053 152.742 170.993 152.742ZM116.569 132.94C116.569 137.207 118.212 141.232 121.189 144.281L130.558 153.878L140.377 143.822C140.841 143.315 141.353 142.793 141.879 142.271L143.426 143.015L142.266 141.889C142.783 141.353 143.324 140.836 143.865 140.338L153.882 130.558L144.286 121.189C141.237 118.207 137.207 116.569 132.94 116.569H116.569V132.94ZM198.135 140.348C198.647 140.821 199.188 141.343 199.715 141.884L199.951 142.121C200.618 142.769 201.121 143.29 201.609 143.817L211.428 153.868L220.797 144.271C223.774 141.222 225.416 137.192 225.416 132.93V116.559H209.045C204.779 116.559 200.754 118.202 197.704 121.179L188.108 130.548L198.135 140.348ZM132.935 92.6599C143.479 92.6599 153.438 96.714 160.981 104.078L170.993 113.849L181 104.078C188.543 96.714 198.502 92.6599 209.045 92.6599H225.416V79.2557C225.416 74.9939 223.778 70.9639 220.797 67.91L182.609 28.7992C179.531 25.6438 175.404 23.9043 170.993 23.9043C166.581 23.9043 162.454 25.6438 159.376 28.7992L121.189 67.91C118.212 70.9591 116.569 74.989 116.569 79.2557V92.6599H132.935Z" fill="white"/>
</svg>
